<svg
xmlns="http://www.w3.org/2000/svg"
xmlns:xlink="http://www.w3.org/1999/xlink"
fill="none"
version="1.1"
width="22"
height="22"
viewBox="0 0 22 22">
<defs><clipPath id="master_svg0_0_194"><rect x="0" y="0" width="22" height="22" rx="0"/></clipPath></defs><g clip-path="url(#master_svg0_0_194)"><g><path d="M11.000003373069763,20.166633373069764C5.937383373069763,20.166633373069764,1.8333333730697632,16.062533373069762,1.8333333730697632,11.000003373069763C1.8333333730697632,5.937383373069763,5.937383373069763,1.8333333730697632,11.000003373069763,1.8333333730697632C16.062533373069762,1.8333333730697632,20.166633373069764,5.937383373069763,20.166633373069764,11.000003373069763C20.166633373069764,16.062533373069762,16.062533373069762,20.166633373069764,11.000003373069763,20.166633373069764C11.000003373069763,20.166633373069764,11.000003373069763,20.166633373069764,11.000003373069763,20.166633373069764ZM11.000003373069763,18.333333373069763C15.050133373069762,18.333333373069763,18.333333373069763,15.050133373069762,18.333333373069763,11.000003373069763C18.333333373069763,6.949913373069763,15.050133373069762,3.6666633730697633,11.000003373069763,3.6666633730697633C6.949913373069763,3.6666633730697633,3.6666633730697633,6.949913373069763,3.6666633730697633,11.000003373069763C3.6666633730697633,15.050133373069762,6.949913373069763,18.333333373069763,11.000003373069763,18.333333373069763C11.000003373069763,18.333333373069763,11.000003373069763,18.333333373069763,11.000003373069763,18.333333373069763ZM10.083333373069763,6.416663373069763C10.083333373069763,6.416663373069763,11.916633373069763,6.416663373069763,11.916633373069763,6.416663373069763C11.916633373069763,6.416663373069763,11.916633373069763,8.250003373069763,11.916633373069763,8.250003373069763C11.916633373069763,8.250003373069763,10.083333373069763,8.250003373069763,10.083333373069763,8.250003373069763C10.083333373069763,8.250003373069763,10.083333373069763,6.416663373069763,10.083333373069763,6.416663373069763C10.083333373069763,6.416663373069763,10.083333373069763,6.416663373069763,10.083333373069763,6.416663373069763ZM10.083333373069763,10.083333373069763C10.083333373069763,10.083333373069763,11.916633373069763,10.083333373069763,11.916633373069763,10.083333373069763C11.916633373069763,10.083333373069763,11.916633373069763,15.583333373069763,11.916633373069763,15.583333373069763C11.916633373069763,15.583333373069763,10.083333373069763,15.583333373069763,10.083333373069763,15.583333373069763C10.083333373069763,15.583333373069763,10.083333373069763,10.083333373069763,10.083333373069763,10.083333373069763C10.083333373069763,10.083333373069763,10.083333373069763,10.083333373069763,10.083333373069763,10.083333373069763Z" fill="#52B5D5" fill-opacity="1"/></g></g></svg>